<?xml version="1.0" encoding="UTF-8" standalone="no"?>
<svg width="300px" height="84px" viewBox="0 0 300 84" version="1.1" xmlns="http://www.w3.org/2000/svg" xmlns:xlink="http://www.w3.org/1999/xlink">
    <!-- Generator: Sketch 39.1 (31720) - http://www.bohemiancoding.com/sketch -->
    <title>logo</title>
    <desc>Created with Sketch.</desc>
    <defs></defs>
    <g id="Page-1" stroke="none" stroke-width="1" fill="none" fill-rule="evenodd">
        <g id="logo">
            <g id="Page-1">
                <g id="Artboard-1">
                    <g id="filmin-(negativo-v1)">
                        <g id="Capa_1">
                            <g id="Group">
                                <path d="M240.206001,80.7501081 C240.206001,82.638027 241.466456,83.8957568 243.357044,83.8957568 L261.632975,83.8957568 C263.524131,83.8957568 264.784965,82.6384054 264.784965,80.7501081 L264.784965,51.390973 C264.784965,50.8667297 265.099747,50.5517297 265.625268,50.5517297 C266.360392,50.5517297 266.465003,51.0763514 266.990145,52.4383243 L276.968604,81.6949189 C277.388756,82.9524595 278.43885,83.8957568 280.014845,83.8957568 L296.715351,83.8957568 C298.605749,83.8957568 299.867151,82.6384054 299.867151,80.7501081 L299.867151,3.15737838 C299.867151,1.27002703 298.605749,0.0111621622 296.715351,0.0111621622 L278.43885,0.0111621622 C276.54921,0.0111621622 275.287808,1.27021622 275.287808,3.15737838 L275.287808,32.5172703 C275.287808,33.0413243 274.972836,33.3555676 274.447315,33.3555676 C273.817562,33.3555676 273.71295,33.1463243 273.291661,31.993027 L263.208781,2.42351351 C262.683639,0.850783784 261.738534,0.010972973 259.952558,0.010972973 L243.356665,0.010972973 C241.466077,0.010972973 240.205622,1.27002703 240.205622,3.15718919 L240.206001,80.7501081 L240.206001,80.7501081 L240.206001,80.7501081 L240.206001,80.7501081 Z M206.489071,80.7501081 C206.489071,82.638027 207.749716,83.8957568 209.640872,83.8957568 L229.912571,83.8957568 C231.803727,83.8957568 233.063613,82.6384054 233.063613,80.7501081 L233.063613,3.15737838 C233.063613,1.27002703 231.803917,0.0111621622 229.912571,0.0111621622 L209.640872,0.0111621622 C207.749716,0.0111621622 206.489071,1.27021622 206.489071,3.15737838 L206.489071,80.7501081 L206.489071,80.7501081 L206.489071,80.7501081 Z" id="Shape" fill="#FFFFFF"></path>
                                <path d="M128.449084,83.8957568 L145.779912,83.8957568 C147.670689,83.8957568 148.930196,82.6384054 148.930196,80.7501081 L148.930196,43.5263784 C148.930196,42.2684595 149.350347,41.8488378 149.771447,41.8488378 C150.296589,41.8488378 150.715982,42.1632703 150.926721,43.5263784 L157.753759,81.588973 C157.962982,82.8463243 159.118636,83.8953784 160.589071,83.8953784 L163.949716,83.8953784 C165.42072,83.8953784 166.575805,82.8463243 166.786545,81.588973 L173.718951,43.5263784 C174.033923,42.0582703 174.453316,41.8488378 174.978648,41.8488378 C175.50379,41.8488378 175.714529,42.2682703 175.714529,43.5263784 L175.714529,80.7501081 C175.714529,82.638027 176.975174,83.8957568 178.865572,83.8957568 L196.196589,83.8957568 C198.086418,83.8957568 199.347631,82.6384054 199.347631,80.7501081 L199.347631,3.15737838 C199.347631,1.27002703 198.086418,0.0111621622 196.196589,0.0111621622 L171.618383,0.0111621622 C169.621857,0.0111621622 168.676943,1.27021622 168.361971,3.15737838 L163.425711,38.0745135 C163.319583,38.9128108 162.900569,39.3320541 162.270436,39.3320541 C161.638787,39.3320541 161.219394,38.9126216 161.114024,38.0745135 L156.283323,3.15737838 C156.073152,1.27002703 154.91674,0.0111621622 153.026153,0.0111621622 L128.449084,0.0111621622 C126.557928,0.0111621622 125.298231,1.27021622 125.298231,3.15737838 L125.298231,80.7501081 C125.298042,82.638027 126.557738,83.8957568 128.449084,83.8957568 Z M80.1331649,80.7501081 C80.1331649,82.638027 81.4989893,83.8957568 83.2843967,83.8957568 L117.945862,83.8957568 C119.837018,83.8957568 121.096526,82.6384054 121.096526,80.7501081 L121.096526,70.7891081 C121.096526,69.0067568 119.837018,67.6434595 117.945862,67.6434595 L109.017498,67.6434595 C107.442641,67.6434595 106.706949,66.9088378 106.706949,65.3370541 L106.706949,3.15737838 C106.706949,1.37445946 105.341503,0.0111621622 103.556286,0.0111621622 L83.2843967,0.0111621622 C81.4987997,0.0111621622 80.1331649,1.37464865 80.1331649,3.15737838 L80.1331649,80.7501081 L80.1331649,80.7501081 L80.1331649,80.7501081 Z M46.4169931,80.7501081 C46.4169931,82.638027 47.6776374,83.8957568 49.5684144,83.8957568 L69.8403032,83.8957568 C71.7308907,83.8957568 72.990777,82.6384054 72.990777,80.7501081 L72.990777,3.15737838 C72.990777,1.27002703 71.7308907,0.0111621622 69.8403032,0.0111621622 L49.5684144,0.0111621622 C47.6776374,0.0111621622 46.4169931,1.27021622 46.4169931,3.15737838 L46.4169931,80.7501081 L46.4169931,80.7501081 L46.4169931,80.7501081 L46.4169931,80.7501081 Z M3.24845231,83.8957568 L23.5199621,83.8957568 C25.4109286,83.8957568 26.6704359,82.6384054 26.6704359,80.7501081 L26.6704359,53.5918108 C26.6704359,52.0194595 27.5113076,51.180973 29.086734,51.180973 L37.2794062,51.180973 C39.1698042,51.180973 40.430638,49.9234324 40.430638,48.0353243 L40.430638,40.6957297 C40.430638,38.8081892 39.1698042,37.5502703 37.2794062,37.5502703 L29.086734,37.5502703 C27.5114972,37.5502703 26.6704359,36.711027 26.6704359,35.1384865 L26.6704359,18.6758108 C26.6704359,17.1032703 27.5113076,16.264027 29.086734,16.264027 L38.0145294,16.264027 C39.9053064,16.264027 41.1657612,15.0059189 41.1657612,13.1185676 L41.1657612,3.15737838 C41.1657612,1.27002703 39.9053064,0.0111621622 38.0145294,0.0111621622 L3.24845231,0.0111621622 C1.35748579,0.0111621622 0.0970309539,1.27021622 0.0970309539,3.15737838 L0.0970309539,80.7501081 C0.0970309539,82.638027 1.35748579,83.8957568 3.24845231,83.8957568 Z" id="Shape" fill="#00FFA1"></path>
                            </g>
                        </g>
                    </g>
                </g>
            </g>
        </g>
    </g>
</svg>